<svg width="256" height="256" viewBox="0 0 256 256" xmlns="http://www.w3.org/2000/svg">
  <rect width="256" height="256" fill="#FFFFFF"/>
  <path d="M80 160h112a28 28 0 0 0 0-56c-1.5 0-3 0.1-4.5 0.3A48 48 0 0 0 96 92a40 40 0 0 0-16 76" fill="none" stroke="#0B1220" stroke-width="8" stroke-linecap="round"/>
  <path d="M96 120 L128 108 L160 120 L160 152 C160 172 144 188 128 196 C112 188 96 172 96 152 Z" fill="#0A84FF"/>
  <path d="M116 152 L126 162 L146 138" fill="none" stroke="#FFFFFF" stroke-width="10" stroke-linecap="round" stroke-linejoin="round"/>
</svg>
